<svg width="1em" height="1em" viewBox="0 0 160 160" fill="#fff" xmlns="http://www.w3.org/2000/svg">
<path d="M18.8963 145.89C12.1322 137.68 7.41624 129.18 4.229 119.597C1.10171 110.074 0.482244 106.255 0.132547 93.8248C-0.147211 83.9611 -0.037308 81.5052 0.98181 75.5809C3.93925 58.3595 10.9832 44.5563 22.9228 32.808C34.6926 21.17 46.4025 14.9551 63.6176 11.3664C71.5707 9.6523 86.6976 9.54203 95.1603 11.0857C128.352 17.1303 152.621 41.4187 158.875 75.0096C160.464 83.5601 160.354 99.5887 158.645 108.199C155.628 123.256 149.264 136.658 140.341 146.752L137.384 150H22.2834L18.8763 145.89H18.8963ZM47.4916 103.809C56.4738 95.8297 64.0872 88.9832 64.4269 88.6925C68.3535 84.9836 79.5438 75.2902 80.0034 75.2902C80.2832 75.2902 84.4896 78.8288 89.3254 83.1592C94.1012 87.4395 105.072 97.2431 113.594 104.881C122.287 112.69 129.281 118.564 129.571 118.284C130.59 117.261 132.978 109.954 134.177 104.26C135.885 95.9901 135.485 84.1315 133.377 76.9442C131.329 70.1579 129.511 66.2184 125.934 60.8054C117.521 48.2051 105.072 39.875 90.1846 37.0282C88.2563 36.6272 83.3605 36.3465 79.2741 36.3465C73.2493 36.4067 70.8613 36.6873 66.2054 37.8902C42.4459 44.1052 26.0801 64.3539 24.6014 89.324C24.2617 95.4287 24.9411 101.694 26.6996 108.711C27.9485 113.562 30.0567 118.745 30.7361 118.514C30.9659 118.404 38.5193 111.788 47.5016 103.799L47.4916 103.809Z" />
</svg>
