<svg xmlns="http://www.w3.org/2000/svg" width="300" height="276" viewBox="0 0 300 276" fill="none">
<g clip-path="url(#clip0_90_58)">
<mask id="mask0_90_58" style="mask-type:luminance" maskUnits="userSpaceOnUse" x="0" y="0" width="300" height="276">
<path d="M300 0H0V276H300V0Z" fill="white"/>
</mask>
<g mask="url(#mask0_90_58)">
<g opacity="0.95">
<path opacity="0.95" d="M248.885 -19.218C244.459 -30.326 228.19 -35.0506 207.265 -33.0928C219.007 -56.6208 221.077 -77.5995 210.624 -85.8863C200.172 -94.1731 180.061 -87.4906 159.611 -70.8695C156.869 -91.5898 148.615 -106.308 136.738 -108.123C118.1 -110.964 97.6561 -81.0121 91.086 -41.23C84.5091 -1.44118 94.2896 33.1132 112.928 35.9548C119.864 53.3849 155.925 55.166 193.473 39.9316C231.02 24.6973 255.828 -1.78788 248.891 -19.2248L248.885 -19.218Z" fill="url(#paint0_linear_90_58)"/>
<path opacity="0.95" d="M247.873 -17.9604C243.407 -29.014 227.179 -33.7998 206.369 -31.9779C217.914 -55.2544 219.848 -76.0632 209.389 -84.35C198.937 -92.6368 178.962 -86.1242 158.715 -69.7546C155.857 -90.3322 147.557 -104.989 135.726 -106.858C117.163 -109.788 97.0046 -80.1896 90.6991 -40.7474C84.4005 -1.30523 94.3439 33.0452 112.907 35.9752C119.919 53.3169 155.817 55.302 193.086 40.4075C230.355 25.513 254.885 -0.618627 247.88 -17.9604H247.873Z" fill="url(#paint1_linear_90_58)"/>
<path opacity="0.95" d="M94.8326 71.5969C92.0091 75.1182 86.8439 75.6961 83.3009 72.8885C79.7579 70.0809 79.1742 64.9484 81.9978 61.427C84.8213 57.9056 89.9865 57.3278 93.5294 60.1354C97.0724 62.943 97.6561 68.0755 94.8326 71.5969Z" fill="url(#paint2_linear_90_58)"/>
</g>
<g opacity="0.95">
<path opacity="0.95" d="M222.59 200.991C231.855 193.377 231.339 176.531 222.998 157.347C249.129 161.181 269.844 156.654 274.534 144.207C279.231 131.759 266.62 114.805 244.398 100.611C263.369 91.617 274.9 79.2582 272.959 67.4704C269.919 48.9662 234.95 38.8983 194.864 44.9758C154.771 51.0532 124.744 70.9782 127.785 89.4825C113.253 101.427 122.695 136.076 148.873 166.871C175.052 197.666 208.052 212.941 222.584 200.991H222.59Z" fill="url(#paint3_linear_90_58)"/>
<path opacity="0.95" d="M221.07 200.426C230.26 192.785 229.826 175.967 221.654 156.851C247.486 160.576 267.991 155.967 272.681 143.52C277.378 131.073 264.977 114.2 243.054 100.115C261.855 91.0528 273.312 78.6736 271.439 66.9062C268.507 48.4428 233.966 38.5312 194.287 44.765C154.609 50.9988 124.826 71.0122 127.758 89.4757C113.335 101.467 122.532 136.022 148.296 166.66C174.061 197.299 206.64 212.418 221.063 200.433L221.07 200.426Z" fill="url(#paint4_linear_90_58)"/>
<path opacity="0.95" d="M88.1063 83.3914C83.8642 81.8075 81.7127 77.11 83.3077 72.8885C84.8959 68.6737 89.6267 66.5323 93.8688 68.1162C98.1109 69.7002 100.262 74.3976 98.6674 78.6192C97.0792 82.834 92.3484 84.9753 88.1063 83.3914Z" fill="url(#paint5_linear_90_58)"/>
</g>
<g opacity="0.95">
<path opacity="0.95" d="M3.82126 244.185C13.9683 250.589 29.9253 244.899 45.6923 231.085C50.0973 256.979 60.8281 275.164 74.1855 275.755C87.543 276.347 99.862 259.188 106.575 233.791C121.045 248.951 136.425 256.034 147.102 250.555C163.86 241.962 162.686 205.783 144.482 169.754C126.278 133.724 97.9344 111.488 81.1765 120.08C65.2602 110.033 35.0294 129.672 13.6697 163.941C-7.69684 198.21 -12.1086 234.138 3.80768 244.185H3.82126Z" fill="url(#paint6_linear_90_58)"/>
<path opacity="0.95" d="M3.88915 242.567C14.0362 248.896 29.9932 243.288 45.7534 229.651C50.1787 255.225 60.9163 273.192 74.2738 273.784C87.6312 274.375 99.9434 257.435 106.643 232.357C121.12 247.333 136.507 254.341 147.183 248.937C163.934 240.46 162.747 204.729 144.523 169.142C126.299 133.554 97.948 111.569 81.1901 120.053C65.267 110.121 35.0498 129.496 13.7104 163.329C-7.63573 197.163 -12.0271 232.642 3.89594 242.574L3.88915 242.567Z" fill="url(#paint7_linear_90_58)"/>
<path opacity="0.95" d="M74.7421 80.6722C74.9457 76.1719 78.7806 72.6845 83.3009 72.8885C87.8281 73.0924 91.3303 76.8993 91.1267 81.3996C90.9231 85.8999 87.0882 89.3873 82.5679 89.1833C78.0407 88.9794 74.5385 85.1725 74.7421 80.6722Z" fill="url(#paint8_linear_90_58)"/>
</g>
<g opacity="0.95">
<path opacity="0.95" d="M-105.109 50.6657C-108.095 62.236 -97.724 75.5669 -79.6357 86.2126C-103.045 98.3811 -117.122 114.153 -113.559 126.967C-109.995 139.781 -89.776 146.124 -63.4072 144.621C-73.4389 162.99 -75.4615 179.719 -66.9163 188.129C-53.5181 201.317 -19.276 189.026 9.56336 160.685C38.4027 132.337 50.9118 98.6666 37.5136 85.4784C42.2036 67.3209 14.0769 44.8058 -25.3032 35.2002C-64.69 25.5878 -100.419 32.5218 -105.109 50.6793V50.6657Z" fill="url(#paint9_linear_90_58)"/>
<path opacity="0.95" d="M-103.548 50.2374C-106.466 61.7941 -96.1697 75.1386 -78.2511 85.8319C-101.348 97.9188 -115.215 113.629 -111.652 126.437C-108.095 139.251 -88.086 145.655 -62.0226 144.234C-71.8778 162.554 -73.8258 179.264 -65.3552 187.687C-52.0656 200.909 -18.2647 188.74 10.1539 160.508C38.5656 132.276 50.8303 98.6734 37.5407 85.458C42.1222 67.3345 14.2466 44.7514 -24.7127 35.0234C-63.6719 25.2955 -98.9661 32.1071 -103.548 50.2306V50.2374Z" fill="url(#paint10_linear_90_58)"/>
<path opacity="0.95" d="M73.2149 67.1985C77.5792 66.0021 82.0995 68.5445 83.3077 72.8885C84.5158 77.2324 81.9502 81.7191 77.586 82.9224C73.2217 84.1188 68.7013 81.5764 67.4932 77.2324C66.2851 72.8885 68.8507 68.395 73.2149 67.1985Z" fill="url(#paint11_linear_90_58)"/>
</g>
<g opacity="0.95">
<path opacity="0.95" d="M46.3371 -112.134C34.3439 -111.386 24.8009 -97.4566 20.2127 -77.0625C1.33709 -95.4375 -18.095 -103.874 -29.2534 -96.5456C-40.4118 -89.2174 -40.2285 -68.1367 -30.6448 -43.6638C-51.3122 -47.4707 -67.9412 -44.2144 -73.3439 -33.5415C-81.8213 -16.7911 -59.4842 11.7878 -23.4502 30.292C12.5769 48.7962 48.6584 50.2238 57.1289 33.4803C75.9502 32.3042 88.7918 -1.24405 85.8122 -41.4544C82.8326 -81.6647 65.1651 -113.31 46.3439 -112.134H46.3371Z" fill="url(#paint12_linear_90_58)"/>
<path opacity="0.95" d="M47.2263 -110.788C35.2738 -109.979 25.6833 -96.1106 20.9932 -75.8728C2.29413 -93.976 -17.0158 -102.236 -28.1742 -94.9073C-39.3326 -87.579 -39.2715 -66.6819 -29.8642 -42.4741C-50.4299 -46.1314 -67.0181 -42.8072 -72.4615 -32.1955C-81 -15.5471 -58.914 12.6579 -23.1244 30.8019C12.6584 48.9458 48.5905 50.1491 57.1358 33.5007C75.8892 32.2295 88.8733 -1.10809 86.138 -40.9513C83.4027 -80.7946 65.9797 -112.066 47.2263 -110.794V-110.788Z" fill="url(#paint13_linear_90_58)"/>
<path opacity="0.95" d="M85.629 61.5901C88.1267 65.3495 87.0882 70.4072 83.3077 72.8885C79.5271 75.3697 74.4366 74.3364 71.9389 70.5771C69.4412 66.8178 70.4796 61.7601 74.2602 59.2788C78.0407 56.7975 83.1312 57.8308 85.629 61.5901Z" fill="url(#paint14_linear_90_58)"/>
</g>
<g opacity="0.95">
<path opacity="0.95" d="M210.149 100.536C212.817 91.4811 204.977 80.6926 190.982 71.8212C209.776 62.8274 221.294 50.7541 218.824 40.5502C216.353 30.3464 200.566 24.8128 179.715 25.3091C188.111 11.0808 190.147 -2.07341 183.631 -8.93262C173.403 -19.6871 146.063 -10.8837 122.559 10.7341C99.0543 32.3518 88.2964 58.5922 98.5181 69.3535C94.3371 83.5614 115.934 102.059 146.762 110.665C177.584 119.278 205.962 114.737 210.143 100.536H210.149Z" fill="url(#paint15_linear_90_58)"/>
<path opacity="0.95" d="M208.914 100.828C211.52 91.787 203.749 80.9849 189.896 72.0795C208.439 63.1469 219.794 51.1144 217.324 40.9105C214.853 30.7067 199.235 25.1323 178.629 25.5674C186.889 11.3663 188.864 -1.7675 182.403 -8.64031C172.262 -19.4152 145.269 -10.7001 122.104 10.836C98.9389 32.3722 88.3778 58.5718 98.5113 69.3467C94.4185 83.5342 115.819 102.079 146.308 110.767C176.796 119.455 204.828 115.002 208.914 100.822V100.828Z" fill="url(#paint16_linear_90_58)"/>
<path opacity="0.95" d="M86.9525 80.5159C82.5475 81.5695 78.1154 78.8775 77.0565 74.4928C75.9977 70.1149 78.7058 65.7097 83.1108 64.6561C87.5158 63.6024 91.9479 66.2944 93.0068 70.6791C94.0656 75.057 91.3574 79.4622 86.9525 80.5159Z" fill="url(#paint17_linear_90_58)"/>
</g>
<g opacity="0.95">
<path opacity="0.95" d="M93.2782 208.387C102.76 208.108 110.661 197.367 114.821 181.392C129.231 196.381 144.346 203.547 153.339 198.054C162.333 192.561 162.753 175.926 155.83 156.361C172.038 159.903 185.247 157.769 189.794 149.482C196.921 136.491 180.054 113.357 152.111 97.81C124.167 82.2698 95.742 80.2031 88.6086 93.1942C73.7307 93.6293 62.7081 119.774 63.9977 151.576C65.2873 183.384 78.3936 208.808 93.2782 208.373V208.387Z" fill="url(#paint18_linear_90_58)"/>
<path opacity="0.95" d="M92.6131 207.306C102.068 206.98 109.995 196.286 114.231 180.433C128.511 195.205 143.532 202.228 152.525 196.735C161.518 191.242 162.027 174.75 155.24 155.403C171.373 158.822 184.548 156.633 189.122 148.401C196.296 135.485 179.613 112.65 151.853 97.4022C124.093 82.1542 95.7692 80.2643 88.595 93.1806C73.7647 93.6972 62.6335 119.659 63.7466 151.175C64.8529 182.69 77.776 207.816 92.6131 207.299V207.306Z" fill="url(#paint19_linear_90_58)"/>
<path d="M74.3552 85.7096C71.9864 81.8687 73.1946 76.8449 77.0566 74.4928C80.9186 72.1339 85.9683 73.3371 88.3371 77.178C90.7059 81.0189 89.4977 86.0359 85.6357 88.3948C81.7738 90.7537 76.724 89.5504 74.3552 85.7096Z" fill="url(#paint20_linear_90_58)"/>
</g>
<g opacity="0.95">
<path opacity="0.95" d="M-46.0113 131.216C-42.8145 140.101 -30.095 144.247 -13.5339 143.241C-23.4163 161.501 -25.6018 178 -17.5724 184.811C-9.543 191.623 6.50225 186.871 23.0769 174.281C24.6991 190.705 30.828 202.534 40.1538 204.267C54.7873 206.993 71.7013 183.887 77.9321 152.663C84.1629 121.44 77.3552 93.9216 62.7217 91.1955C57.7059 77.2596 29.2941 74.9211 -0.733045 85.9679C-30.7602 97.0147 -51.0339 117.273 -46.0113 131.209V131.216Z" fill="url(#paint21_linear_90_58)"/>
<path opacity="0.95" d="M-45.1833 130.25C-41.9457 139.088 -29.2738 143.282 -12.8009 142.385C-22.5204 160.454 -24.5905 176.824 -16.5611 183.635C-8.53169 190.447 7.40496 185.824 23.8099 173.431C25.5203 189.747 31.69 201.528 40.9819 203.309C55.5543 206.103 72.2375 183.268 78.2443 152.31C84.2511 121.352 77.3077 93.9827 62.7353 91.1888C57.6584 77.3208 29.3823 74.8259 -0.420831 85.6144C-30.224 96.4029 -50.267 116.389 -45.1901 130.25H-45.1833Z" fill="url(#paint22_linear_90_58)"/>
<path opacity="0.95" d="M65.491 75.4105C68.4299 71.9843 73.6086 71.5764 77.0566 74.4996C80.5045 77.4227 80.9186 82.5689 77.9729 85.9951C75.0339 89.4213 69.8552 89.8292 66.4072 86.906C62.9593 83.9828 62.5453 78.8367 65.491 75.4105Z" fill="url(#paint23_linear_90_58)"/>
</g>
<g opacity="0.95">
<path opacity="0.95" d="M-15.2308 -24.3438C-22.7376 -18.5722 -22.7783 -5.26849 -16.6968 10.0815C-37.2149 6.37653 -53.6742 9.41525 -57.7127 19.116C-61.7444 28.8168 -52.2421 42.5217 -35.0769 54.2958C-50.2873 60.9035 -59.7082 70.3528 -58.4864 79.7069C-56.5724 94.3838 -29.2466 103.242 2.54524 99.4823C34.3371 95.723 58.5611 80.781 56.6403 66.0972C68.4231 57.0422 61.8801 29.4626 42.0271 4.47988C22.1878 -20.4825 -3.45477 -33.3919 -15.2308 -24.3438Z" fill="url(#paint24_linear_90_58)"/>
<path opacity="0.95" d="M-14.0566 -23.8543C-21.5091 -18.0624 -21.6041 -4.77905 -15.6584 10.5165C-35.9457 6.90676 -52.2421 10.0135 -56.2738 19.7142C-60.3055 29.415 -50.9661 43.0519 -34.0317 54.7377C-49.1064 61.3998 -58.4729 70.8762 -57.3054 80.2031C-55.4729 94.8461 -28.4797 103.568 2.9932 99.6795C34.466 95.791 58.4932 80.7673 56.6674 66.1244C68.362 57.0354 62.009 29.5306 42.4819 4.6838C22.9479 -20.1698 -2.36201 -32.9433 -14.0566 -23.8543Z" fill="url(#paint25_linear_90_58)"/>
<path d="M72.6109 63.8403C76.7987 65.5602 78.7873 70.3324 77.0566 74.4928C75.3258 78.6532 70.5272 80.6382 66.3394 78.9183C62.1516 77.1984 60.1629 72.4262 61.8937 68.2658C63.6244 64.1054 68.4231 62.1204 72.6109 63.8403Z" fill="url(#paint26_linear_90_58)"/>
</g>
<g opacity="0.95">
<path opacity="0.95" d="M143.077 -43.3171C135.238 -48.6331 122.498 -44.5543 109.69 -34.0649C106.894 -54.6086 98.8982 -69.2379 88.3778 -70.0537C77.8507 -70.8695 67.6833 -57.6473 61.7172 -37.7767C50.6946 -50.1151 38.7489 -56.1042 30.1765 -52.0593C16.7308 -45.71 16.7036 -17.1378 30.1222 11.7606C43.5407 40.659 65.3213 58.9457 78.7737 52.5963C91.0724 60.9375 115.439 46.2266 133.195 19.7415C150.95 -6.74365 155.376 -34.9827 143.077 -43.3239V-43.3171Z" fill="url(#paint27_linear_90_58)"/>
<path opacity="0.95" d="M142.975 -42.0526C135.129 -47.3075 122.396 -43.2967 109.602 -32.9433C106.785 -53.2422 98.776 -67.6948 88.2557 -68.5105C77.7285 -69.3263 67.5747 -56.2741 61.629 -36.6618C50.5996 -48.8574 38.6403 -54.7853 30.0747 -50.7949C16.6358 -44.5407 16.6358 -16.3153 30.0815 12.2432C43.5272 40.8018 65.3281 58.8777 78.767 52.6235C91.0724 60.8764 115.425 46.3694 133.154 20.2241C150.882 -5.92108 155.281 -33.7998 142.975 -42.0526Z" fill="url(#paint28_linear_90_58)"/>
<path d="M85.8733 66.9946C85.5204 71.4881 81.5769 74.8395 77.0566 74.4928C72.5362 74.1461 69.1629 70.2168 69.5158 65.7301C69.8688 61.2366 73.8122 57.8784 78.3326 58.2319C82.8462 58.5786 86.2262 62.5079 85.8733 66.9946Z" fill="url(#paint29_linear_90_58)"/>
</g>
<path d="M77.0565 157.089C122.939 157.089 160.133 120.109 160.133 74.4928C160.133 28.8762 122.939 -8.10327 77.0565 -8.10327C31.1744 -8.10327 -6.02039 28.8762 -6.02039 74.4928C-6.02039 120.109 31.1744 157.089 77.0565 157.089Z" fill="url(#paint30_radial_90_58)" style="mix-blend-mode:multiply"/>
<path opacity="0.95" d="M77.0566 121.182C102.993 121.182 124.018 100.278 124.018 74.4928C124.018 48.7072 102.993 27.8039 77.0566 27.8039C51.1204 27.8039 30.095 48.7072 30.095 74.4928C30.095 100.278 51.1204 121.182 77.0566 121.182Z" fill="url(#paint31_radial_90_58)"/>
<path opacity="0.95" d="M122.199 77.987C124.14 53.2014 105.502 31.5429 80.5724 29.6122C55.6425 27.6816 33.8552 46.213 31.914 70.9986C29.9728 95.7842 48.6108 117.443 73.5407 119.373C98.4706 121.304 120.258 102.773 122.199 77.987Z" fill="url(#paint32_radial_90_58)"/>
</g>
</g>
<defs>
<linearGradient id="paint0_linear_90_58" x1="199.607" y1="-79.1072" x2="88.3771" y2="92.9501" gradientUnits="userSpaceOnUse">
<stop stop-color="#005A88"/>
<stop offset="0.53" stop-color="#00355F"/>
<stop offset="1" stop-color="#002B53"/>
</linearGradient>
<linearGradient id="paint1_linear_90_58" x1="216.634" y1="-100.305" x2="83.6348" y2="87.6737" gradientUnits="userSpaceOnUse">
<stop stop-color="#005A88"/>
<stop offset="0.53" stop-color="#00355F"/>
<stop offset="1" stop-color="#002B53"/>
</linearGradient>
<linearGradient id="paint2_linear_90_58" x1="82.0234" y1="61.4111" x2="94.8299" y2="71.6037" gradientUnits="userSpaceOnUse">
<stop stop-color="#005A88"/>
<stop offset="0.53" stop-color="#00355F"/>
<stop offset="1" stop-color="#002B53"/>
</linearGradient>
<linearGradient id="paint3_linear_90_58" x1="263.593" y1="137.736" x2="67.2663" y2="76.6953" gradientUnits="userSpaceOnUse">
<stop stop-color="#005A88"/>
<stop offset="0.53" stop-color="#00355F"/>
<stop offset="1" stop-color="#002B53"/>
</linearGradient>
<linearGradient id="paint4_linear_90_58" x1="311.224" y1="156.559" x2="82.2164" y2="74.947" gradientUnits="userSpaceOnUse">
<stop stop-color="#005A88"/>
<stop offset="0.54" stop-color="#00355F"/>
<stop offset="1" stop-color="#002B53"/>
</linearGradient>
<linearGradient id="paint5_linear_90_58" x1="93.8408" y1="68.1497" x2="88.1019" y2="83.4262" gradientUnits="userSpaceOnUse">
<stop stop-color="#0078AA"/>
<stop offset="0.53" stop-color="#002973"/>
<stop offset="1" stop-color="#001B57"/>
</linearGradient>
<linearGradient id="paint6_linear_90_58" x1="75.1149" y1="242.417" x2="86.8403" y2="79.0494" gradientUnits="userSpaceOnUse">
<stop stop-color="#005A88"/>
<stop offset="0.53" stop-color="#00355F"/>
<stop offset="1" stop-color="#002B53"/>
</linearGradient>
<linearGradient id="paint7_linear_90_58" x1="73.5742" y1="268.867" x2="83.0811" y2="119.424" gradientUnits="userSpaceOnUse">
<stop stop-color="#005A88"/>
<stop offset="0.53" stop-color="#00355F"/>
<stop offset="1" stop-color="#002B53"/>
</linearGradient>
<linearGradient id="paint8_linear_90_58" x1="91.101" y1="81.4031" x2="74.7123" y2="80.6715" gradientUnits="userSpaceOnUse">
<stop stop-color="#005A88"/>
<stop offset="0.53" stop-color="#00355F"/>
<stop offset="1" stop-color="#002B53"/>
</linearGradient>
<linearGradient id="paint9_linear_90_58" x1="-122.266" y1="128.837" x2="76.5596" y2="76.357" gradientUnits="userSpaceOnUse">
<stop stop-color="#005A88"/>
<stop offset="0.53" stop-color="#00355F"/>
<stop offset="1" stop-color="#002B53"/>
</linearGradient>
<linearGradient id="paint10_linear_90_58" x1="-129.866" y1="130.361" x2="105.652" y2="69.788" gradientUnits="userSpaceOnUse">
<stop stop-color="#005A88"/>
<stop offset="0.53" stop-color="#00355F"/>
<stop offset="1" stop-color="#002B53"/>
</linearGradient>
<linearGradient id="paint11_linear_90_58" x1="77.6074" y1="83.0101" x2="73.2579" y2="67.2872" gradientUnits="userSpaceOnUse">
<stop stop-color="#005A88"/>
<stop offset="0.53" stop-color="#00355F"/>
<stop offset="1" stop-color="#002B53"/>
</linearGradient>
<linearGradient id="paint12_linear_90_58" x1="-33.9027" y1="-77.7397" x2="127.47" y2="48.8792" gradientUnits="userSpaceOnUse">
<stop stop-color="#005A88"/>
<stop offset="0.53" stop-color="#00355F"/>
<stop offset="1" stop-color="#002B53"/>
</linearGradient>
<linearGradient id="paint13_linear_90_58" x1="-27.6526" y1="-92.0569" x2="111.297" y2="106.486" gradientUnits="userSpaceOnUse">
<stop stop-color="#005A88"/>
<stop offset="0.53" stop-color="#00355F"/>
<stop offset="1" stop-color="#002B53"/>
</linearGradient>
<linearGradient id="paint14_linear_90_58" x1="71.9636" y1="70.6236" x2="85.6377" y2="61.6077" gradientUnits="userSpaceOnUse">
<stop stop-color="#005A88"/>
<stop offset="0.53" stop-color="#00355F"/>
<stop offset="1" stop-color="#002B53"/>
</linearGradient>
<linearGradient id="paint15_linear_90_58" x1="215.928" y1="26.7983" x2="83.1759" y2="105.75" gradientUnits="userSpaceOnUse">
<stop stop-color="#005A88"/>
<stop offset="0.54" stop-color="#00355F"/>
<stop offset="1" stop-color="#002B53"/>
</linearGradient>
<linearGradient id="paint16_linear_90_58" x1="215.779" y1="26.5546" x2="83.0265" y2="105.506" gradientUnits="userSpaceOnUse">
<stop stop-color="#005A88"/>
<stop offset="0.54" stop-color="#00355F"/>
<stop offset="1" stop-color="#002B53"/>
</linearGradient>
<linearGradient id="paint17_linear_90_58" x1="83.1517" y1="64.6412" x2="86.9769" y2="80.5003" gradientUnits="userSpaceOnUse">
<stop stop-color="#005A88"/>
<stop offset="0.54" stop-color="#00355F"/>
<stop offset="1" stop-color="#002B53"/>
</linearGradient>
<linearGradient id="paint18_linear_90_58" x1="175.884" y1="110.824" x2="65.1629" y2="178.674" gradientUnits="userSpaceOnUse">
<stop stop-color="#005A88"/>
<stop offset="0.53" stop-color="#00355F"/>
<stop offset="1" stop-color="#002B53"/>
</linearGradient>
<linearGradient id="paint19_linear_90_58" x1="165.491" y1="191.034" x2="49.4736" y2="89.558" gradientUnits="userSpaceOnUse">
<stop stop-color="#005A88"/>
<stop offset="0.53" stop-color="#00355F"/>
<stop offset="1" stop-color="#002B53"/>
</linearGradient>
<linearGradient id="paint20_linear_90_58" x1="183.301" y1="170.881" x2="67.2136" y2="69.3445" gradientUnits="userSpaceOnUse">
<stop stop-color="#005A88"/>
<stop offset="0.53" stop-color="#00355F"/>
<stop offset="1" stop-color="#002B53"/>
</linearGradient>
<linearGradient id="paint21_linear_90_58" x1="-7.0873" y1="194.178" x2="53.654" y2="52.7403" gradientUnits="userSpaceOnUse">
<stop stop-color="#005A88"/>
<stop offset="0.53" stop-color="#00355F"/>
<stop offset="1" stop-color="#002B53"/>
</linearGradient>
<linearGradient id="paint22_linear_90_58" x1="-6.8183" y1="194.292" x2="53.9178" y2="52.8495" gradientUnits="userSpaceOnUse">
<stop stop-color="#005A88"/>
<stop offset="0.53" stop-color="#00355F"/>
<stop offset="1" stop-color="#002B53"/>
</linearGradient>
<linearGradient id="paint23_linear_90_58" x1="77.9587" y1="85.9803" x2="65.4946" y2="75.3705" gradientUnits="userSpaceOnUse">
<stop stop-color="#005A88"/>
<stop offset="0.53" stop-color="#00355F"/>
<stop offset="1" stop-color="#002B53"/>
</linearGradient>
<linearGradient id="paint24_linear_90_58" x1="-24.4567" y1="102.835" x2="25.05" y2="-16.7324" gradientUnits="userSpaceOnUse">
<stop stop-color="#005A88"/>
<stop offset="0.53" stop-color="#00355F"/>
<stop offset="1" stop-color="#002B53"/>
</linearGradient>
<linearGradient id="paint25_linear_90_58" x1="-32.7927" y1="30.2888" x2="89.7927" y2="73.4765" gradientUnits="userSpaceOnUse">
<stop stop-color="#005A88"/>
<stop offset="0.53" stop-color="#00355F"/>
<stop offset="1" stop-color="#002B53"/>
</linearGradient>
<linearGradient id="paint26_linear_90_58" x1="66.3146" y1="78.9521" x2="72.5598" y2="63.8688" gradientUnits="userSpaceOnUse">
<stop stop-color="#005A88"/>
<stop offset="0.53" stop-color="#00355F"/>
<stop offset="1" stop-color="#002B53"/>
</linearGradient>
<linearGradient id="paint27_linear_90_58" x1="86.7348" y1="-45.8114" x2="74.766" y2="82.9446" gradientUnits="userSpaceOnUse">
<stop stop-color="#005A88"/>
<stop offset="0.53" stop-color="#00355F"/>
<stop offset="1" stop-color="#002B53"/>
</linearGradient>
<linearGradient id="paint28_linear_90_58" x1="86.7245" y1="-44.1894" x2="71.4143" y2="108.423" gradientUnits="userSpaceOnUse">
<stop stop-color="#005A88"/>
<stop offset="0.53" stop-color="#00355F"/>
<stop offset="1" stop-color="#002B53"/>
</linearGradient>
<linearGradient id="paint29_linear_90_58" x1="47.7995" y1="-65.5109" x2="81.8967" y2="84.4176" gradientUnits="userSpaceOnUse">
<stop stop-color="#005A88"/>
<stop offset="0.53" stop-color="#00355F"/>
<stop offset="1" stop-color="#002B53"/>
</linearGradient>
<radialGradient id="paint30_radial_90_58" cx="0" cy="0" r="1" gradientTransform="matrix(82.8231 6.41206 -6.40197 82.9536 77.1377 75.6691)" gradientUnits="userSpaceOnUse">
<stop offset="0.01" stop-color="#001D3F"/>
<stop offset="0.27" stop-color="#445972" stop-opacity="0.73"/>
<stop offset="1" stop-color="white" stop-opacity="0"/>
</radialGradient>
<radialGradient id="paint31_radial_90_58" cx="0" cy="0" r="1" gradientTransform="matrix(46.8151 3.62437 -3.61866 46.8889 77.1377 75.6691)" gradientUnits="userSpaceOnUse">
<stop stop-color="#005A88"/>
<stop offset="0.53" stop-color="#00355F"/>
<stop offset="1" stop-color="#002B53"/>
</radialGradient>
<radialGradient id="paint32_radial_90_58" cx="0" cy="0" r="1" gradientTransform="matrix(94.5099 7.31685 -7.30533 94.6589 77.1377 75.6691)" gradientUnits="userSpaceOnUse">
<stop stop-color="#005A88"/>
<stop offset="0.53" stop-color="#00355F"/>
<stop offset="1" stop-color="#002B53"/>
</radialGradient>
<clipPath id="clip0_90_58">
<rect width="300" height="276" fill="white"/>
</clipPath>
</defs>
</svg>